<?xml version="1.0" encoding="UTF-8" standalone="no"?>
<!DOCTYPE svg PUBLIC "-//W3C//DTD SVG 1.1//EN" "http://www.w3.org/Graphics/SVG/1.1/DTD/svg11.dtd">
<svg xmlns="http://www.w3.org/2000/svg" version="1.1" viewBox="0.00 0.00 310.00 310.00">
<g stroke-width="2.00" fill="none" stroke-linecap="butt">
<path stroke="#a0ccc5" vector-effect="non-scaling-stroke" d="
  M 179.22 38.50
  Q 176.63 45.17 175.40 52.15
  Q 174.73 55.96 174.01 58.58
  C 171.75 66.86 170.43 75.51 168.73 83.93
  C 168.32 85.97 166.86 87.64 167.14 89.52
  Q 167.54 92.19 166.99 98.21
  Q 165.79 111.28 161.82 122.92"
/>
<path stroke="#b2ceca" vector-effect="non-scaling-stroke" d="
  M 161.82 122.92
  L 166.83 92.41
  Q 167.29 89.65 166.12 92.17
  Q 165.56 93.37 165.36 96.86
  Q 165.33 97.41 165.13 98.10
  Q 164.98 98.62 164.77 99.33
  Q 163.52 103.49 159.87 123.24
  Q 158.63 129.96 156.37 140.84
  Q 153.58 154.33 150.97 170.94
  C 149.68 179.20 148.76 189.85 147.57 199.25"
/>
<path stroke="#a0ccc5" vector-effect="non-scaling-stroke" d="
  M 147.57 199.25
  L 146.03 201.27"
/>
<path stroke="#a0ccc5" vector-effect="non-scaling-stroke" d="
  M 148.67 224.30
  Q 148.84 223.59 148.48 223.25"
/>
<path stroke="#84bdae" vector-effect="non-scaling-stroke" d="
  M 146.92 208.72
  Q 147.12 207.95 146.86 207.70"
/>
<path stroke="#bcd3d4" vector-effect="non-scaling-stroke" d="
  M 147.57 199.25
  Q 147.08 201.36 147.58 202.94
  Q 147.76 203.49 148.00 202.97
  Q 149.68 199.35 150.46 195.25
  C 151.25 191.03 151.21 185.56 152.32 180.52
  Q 154.36 171.26 155.38 160.99
  Q 155.67 158.09 156.27 155.42
  Q 156.95 152.40 157.24 149.88
  Q 158.80 136.05 161.82 122.92"
/>
<path stroke="#96bfb3" vector-effect="non-scaling-stroke" d="
  M 80.42 106.76
  Q 80.23 106.44 79.94 106.84
  A 0.50 0.48 49.4 0 0 79.91 107.35
  L 103.57 153.55"
/>
<path stroke="#96bfb3" vector-effect="non-scaling-stroke" d="
  M 142.63 217.98
  Q 145.45 220.48 144.12 222.69"
/>
<path stroke="#96bfb3" vector-effect="non-scaling-stroke" d="
  M 141.81 216.73
  C 141.57 215.74 141.47 214.81 141.02 213.91
  Q 136.21 204.18 128.13 191.61
  Q 118.89 177.25 113.42 169.81"
/>
<path stroke="#b8d0c5" vector-effect="non-scaling-stroke" d="
  M 250.89 136.19
  Q 244.93 140.00 239.92 144.90
  Q 232.69 151.97 232.58 152.07
  Q 228.93 155.44 223.33 161.14
  Q 220.23 164.29 215.88 168.53
  Q 210.09 174.18 208.45 175.96
  Q 204.24 180.54 199.88 185.03"
/>
<path stroke="#84bdae" vector-effect="non-scaling-stroke" d="
  M 199.88 185.03
  Q 199.92 184.42 199.70 184.22
  Q 199.38 183.94 199.07 184.23
  Q 189.89 192.81 181.15 201.78
  Q 180.01 202.95 178.78 204.61
  Q 177.67 206.11 176.31 207.40
  Q 174.61 209.00 172.68 211.59
  Q 167.91 217.97 167.30 218.79
  Q 163.96 223.30 160.77 229.70
  Q 160.00 231.26 159.07 234.33
  Q 158.37 236.69 157.25 238.97"
/>
<path stroke="#92bca4" vector-effect="non-scaling-stroke" d="
  M 157.14 245.79
  L 157.14 245.04"
/>
<path stroke="#92bca4" vector-effect="non-scaling-stroke" d="
  M 157.28 244.90
  Q 160.83 238.21 164.37 231.81
  Q 172.41 217.28 183.05 204.54
  Q 184.39 202.94 188.26 198.01
  Q 192.64 192.42 199.88 185.03"
/>
<path stroke="#aecbbb" vector-effect="non-scaling-stroke" d="
  M 86.82 201.37
  Q 86.63 201.25 81.04 197.34
  Q 80.91 197.25 80.82 197.38
  L 80.81 197.38
  Q 80.72 197.50 80.88 197.63
  Q 98.22 212.18 114.42 225.20
  Q 130.31 237.98 148.16 247.63
  Q 152.79 250.13 157.45 252.23
  Q 158.83 252.84 157.89 251.68
  Q 157.65 251.37 156.84 250.73
  Q 155.12 249.37 136.73 236.27
  Q 133.79 234.18 123.37 227.15
  Q 106.61 215.87 96.22 208.61
  Q 94.25 207.24 91.72 205.09
  Q 89.09 202.87 86.82 201.37"
/>
</g>
<path fill="#96c7bb" d="
  M 179.22 38.50
  Q 176.63 45.17 175.40 52.15
  Q 174.73 55.96 174.01 58.58
  C 171.75 66.86 170.43 75.51 168.73 83.93
  C 168.32 85.97 166.86 87.64 167.14 89.52
  Q 167.54 92.19 166.99 98.21
  Q 165.79 111.28 161.82 122.92
  L 166.83 92.41
  Q 167.29 89.65 166.12 92.17
  Q 165.56 93.37 165.36 96.86
  Q 165.33 97.41 165.13 98.10
  Q 164.98 98.62 164.77 99.33
  Q 163.52 103.49 159.87 123.24
  Q 158.63 129.96 156.37 140.84
  Q 153.58 154.33 150.97 170.94
  C 149.68 179.20 148.76 189.85 147.57 199.25
  L 146.03 201.27
  Q 144.71 189.16 140.96 177.57
  Q 136.52 163.87 136.31 162.99
  Q 130.85 140.58 135.27 117.51
  Q 139.02 97.97 148.48 78.97
  Q 160.60 54.62 178.55 32.48
  Q 179.25 31.62 179.24 32.73
  L 179.22 38.50
  Z"
/>
<path fill="#aad0ce" d="
  M 179.22 38.50
  Q 179.66 47.55 180.15 56.55
  Q 180.45 62.14 181.10 66.92
  Q 181.76 71.78 182.24 77.25
  C 182.89 84.61 184.37 92.00 185.53 99.00
  Q 188.14 114.71 187.08 129.95
  Q 186.02 145.18 177.77 159.80
  Q 169.79 173.94 162.45 188.47
  Q 158.68 195.93 154.52 207.26
  Q 151.05 216.69 149.51 227.99
  Q 149.47 228.31 149.29 228.19
  L 149.28 228.19
  Q 149.08 228.05 149.08 227.99
  L 148.67 224.30
  Q 148.84 223.59 148.48 223.25
  L 146.92 208.72
  Q 147.12 207.95 146.86 207.70
  L 146.03 201.27
  L 147.57 199.25
  Q 147.08 201.36 147.58 202.94
  Q 147.76 203.49 148.00 202.97
  Q 149.68 199.35 150.46 195.25
  C 151.25 191.03 151.21 185.56 152.32 180.52
  Q 154.36 171.26 155.38 160.99
  Q 155.67 158.09 156.27 155.42
  Q 156.95 152.40 157.24 149.88
  Q 158.80 136.05 161.82 122.92
  Q 165.79 111.28 166.99 98.21
  Q 167.54 92.19 167.14 89.52
  C 166.86 87.64 168.32 85.97 168.73 83.93
  C 170.43 75.51 171.75 66.86 174.01 58.58
  Q 174.73 55.96 175.40 52.15
  Q 176.63 45.17 179.22 38.50
  Z"
/>
<path fill="#cdd5d9" d="
  M 161.82 122.92
  Q 158.80 136.05 157.24 149.88
  Q 156.95 152.40 156.27 155.42
  Q 155.67 158.09 155.38 160.99
  Q 154.36 171.26 152.32 180.52
  C 151.21 185.56 151.25 191.03 150.46 195.25
  Q 149.68 199.35 148.00 202.97
  Q 147.76 203.49 147.58 202.94
  Q 147.08 201.36 147.57 199.25
  C 148.76 189.85 149.68 179.20 150.97 170.94
  Q 153.58 154.33 156.37 140.84
  Q 158.63 129.96 159.87 123.24
  Q 163.52 103.49 164.77 99.33
  Q 164.98 98.62 165.13 98.10
  Q 165.33 97.41 165.36 96.86
  Q 165.56 93.37 166.12 92.17
  Q 167.29 89.65 166.83 92.41
  L 161.82 122.92
  Z"
/>
<path fill="#5ea98d" d="
  M 80.42 106.76
  Q 80.23 106.44 79.94 106.84
  A 0.50 0.48 49.4 0 0 79.91 107.35
  L 103.57 153.55
  Q 102.37 153.04 102.47 153.26
  Q 113.07 176.21 126.26 197.79
  Q 132.09 207.34 136.84 212.91
  Q 138.53 214.89 142.63 217.98
  Q 145.45 220.48 144.12 222.69
  Q 126.80 212.84 111.63 200.37
  Q 98.90 189.90 89.67 176.84
  Q 78.29 160.75 74.85 141.86
  Q 73.07 132.11 73.87 123.18
  Q 74.69 113.93 76.93 104.54
  Q 77.25 103.23 78.37 103.97
  Q 79.53 104.73 80.42 106.76
  Z"
/>
<path fill="#cdd5d9" d="
  M 80.42 106.76
  Q 97.56 128.89 107.52 143.72
  Q 118.16 159.54 127.03 176.05
  Q 136.13 192.98 142.58 210.02
  Q 144.84 215.99 146.56 223.00
  Q 146.79 223.92 145.92 223.52
  L 144.12 222.69
  Q 145.45 220.48 142.63 217.98
  Q 142.38 217.31 141.81 216.73
  C 141.57 215.74 141.47 214.81 141.02 213.91
  Q 136.21 204.18 128.13 191.61
  Q 118.89 177.25 113.42 169.81
  Q 107.82 162.16 103.57 153.55
  L 79.91 107.35
  A 0.50 0.48 49.4 0 1 79.94 106.84
  Q 80.23 106.44 80.42 106.76
  Z"
/>
<path fill="#aad0ce" d="
  M 250.89 136.19
  Q 244.93 140.00 239.92 144.90
  Q 232.69 151.97 232.58 152.07
  Q 228.93 155.44 223.33 161.14
  Q 220.23 164.29 215.88 168.53
  Q 210.09 174.18 208.45 175.96
  Q 204.24 180.54 199.88 185.03
  Q 199.92 184.42 199.70 184.22
  Q 199.38 183.94 199.07 184.23
  Q 189.89 192.81 181.15 201.78
  Q 180.01 202.95 178.78 204.61
  Q 177.67 206.11 176.31 207.40
  Q 174.61 209.00 172.68 211.59
  Q 167.91 217.97 167.30 218.79
  Q 163.96 223.30 160.77 229.70
  Q 160.00 231.26 159.07 234.33
  Q 158.37 236.69 157.25 238.97
  Q 157.03 229.34 158.83 220.31
  Q 162.63 201.20 173.26 185.49
  Q 185.38 167.60 202.22 155.97
  Q 212.84 148.64 225.95 143.20
  Q 236.03 139.02 250.34 135.21
  A 0.64 0.63 -23.7 0 1 251.04 135.48
  Q 251.43 136.08 250.89 136.19
  Z"
/>
<path fill="#c6cfbb" d="
  M 250.89 136.19
  Q 246.97 158.63 238.68 179.18
  Q 237.98 180.91 233.68 189.31
  Q 230.50 195.53 228.01 199.07
  Q 222.73 206.56 217.17 211.92
  C 208.32 220.45 196.72 224.59 184.06 226.91
  Q 182.33 227.23 177.70 228.59
  Q 173.62 229.78 171.55 230.91
  Q 161.55 236.31 158.43 246.93
  Q 158.00 248.38 157.33 247.02
  Q 157.21 246.78 157.14 245.79
  L 157.14 245.04
  Q 157.21 244.97 157.28 244.90
  Q 160.83 238.21 164.37 231.81
  Q 172.41 217.28 183.05 204.54
  Q 184.39 202.94 188.26 198.01
  Q 192.64 192.42 199.88 185.03
  Q 204.24 180.54 208.45 175.96
  Q 210.09 174.18 215.88 168.53
  Q 220.23 164.29 223.33 161.14
  Q 228.93 155.44 232.58 152.07
  Q 232.69 151.97 239.92 144.90
  Q 244.93 140.00 250.89 136.19
  Z"
/>
<path fill="#5ea98d" d="
  M 141.81 216.73
  Q 140.05 215.19 139.17 213.27
  Q 137.47 209.59 137.39 209.45
  Q 131.66 200.19 125.82 191.01
  Q 125.77 190.93 123.91 187.78
  Q 122.78 185.88 120.95 183.28
  Q 117.70 178.69 113.42 169.81
  Q 118.89 177.25 128.13 191.61
  Q 136.21 204.18 141.02 213.91
  C 141.47 214.81 141.57 215.74 141.81 216.73
  Z"
/>
<path fill="#c6cfbb" d="
  M 143.98 255.20
  Q 138.59 254.95 135.28 254.41
  Q 130.44 253.61 120.27 251.44
  Q 110.10 249.27 97.53 243.01
  Q 67.46 228.04 55.91 196.88
  Q 52.56 187.86 50.88 178.09
  A 0.26 0.26 0.0 0 1 51.24 177.81
  Q 85.81 192.86 116.96 215.21
  Q 132.00 226.01 155.08 246.48
  Q 157.68 248.79 160.48 251.93
  Q 161.78 253.39 164.28 255.99
  Q 164.49 256.20 164.20 256.20
  Q 159.06 256.24 152.70 255.78
  Q 146.20 255.31 143.98 255.20
  Z
  M 86.82 201.37
  Q 86.63 201.25 81.04 197.34
  Q 80.91 197.25 80.82 197.38
  L 80.81 197.38
  Q 80.72 197.50 80.88 197.63
  Q 98.22 212.18 114.42 225.20
  Q 130.31 237.98 148.16 247.63
  Q 152.79 250.13 157.45 252.23
  Q 158.83 252.84 157.89 251.68
  Q 157.65 251.37 156.84 250.73
  Q 155.12 249.37 136.73 236.27
  Q 133.79 234.18 123.37 227.15
  Q 106.61 215.87 96.22 208.61
  Q 94.25 207.24 91.72 205.09
  Q 89.09 202.87 86.82 201.37
  Z"
/>
<path fill="#5ea98d" d="
  M 199.88 185.03
  Q 192.64 192.42 188.26 198.01
  Q 184.39 202.94 183.05 204.54
  Q 172.41 217.28 164.37 231.81
  Q 160.83 238.21 157.28 244.90
  L 157.25 238.97
  Q 158.37 236.69 159.07 234.33
  Q 160.00 231.26 160.77 229.70
  Q 163.96 223.30 167.30 218.79
  Q 167.91 217.97 172.68 211.59
  Q 174.61 209.00 176.31 207.40
  Q 177.67 206.11 178.78 204.61
  Q 180.01 202.95 181.15 201.78
  Q 189.89 192.81 199.07 184.23
  Q 199.38 183.94 199.70 184.22
  Q 199.92 184.42 199.88 185.03
  Z"
/>
<path fill="#96c7bb" d="
  M 86.82 201.37
  Q 89.09 202.87 91.72 205.09
  Q 94.25 207.24 96.22 208.61
  Q 106.61 215.87 123.37 227.15
  Q 133.79 234.18 136.73 236.27
  Q 155.12 249.37 156.84 250.73
  Q 157.65 251.37 157.89 251.68
  Q 158.83 252.84 157.45 252.23
  Q 152.79 250.13 148.16 247.63
  Q 130.31 237.98 114.42 225.20
  Q 98.22 212.18 80.88 197.63
  Q 80.72 197.50 80.81 197.38
  L 80.82 197.38
  Q 80.91 197.25 81.04 197.34
  Q 86.63 201.25 86.82 201.37
  Z"
/>
<path fill="#5ea98d" d="
  M 146.92 208.72
  L 146.86 207.70
  Q 147.12 207.95 146.92 208.72
  Z"
/>
<path fill="#96c7bb" d="
  M 148.67 224.30
  L 148.48 223.25
  Q 148.84 223.59 148.67 224.30
  Z"
/>
<path fill="#5ea98d" d="
  M 157.14 245.04
  L 157.14 245.79
  L 157.14 245.04
  Z"
/>
<path fill="#5ea98d" d="
  M 112.12 291.21
  Q 108.43 293.40 104.72 295.36
  A 0.38 0.38 0.0 0 1 104.17 294.94
  Q 105.42 289.41 107.69 284.44
  C 113.38 272.01 124.34 265.38 137.64 262.93
  Q 151.64 260.36 166.85 263.48
  Q 168.71 263.87 166.87 264.33
  Q 162.16 265.53 156.97 267.98
  Q 146.28 273.02 119.51 287.03
  Q 116.86 288.41 112.12 291.21
  Z"
/>
</svg>
